<svg width="14" height="28" viewBox="0 0 14 28" fill="none" xmlns="http://www.w3.org/2000/svg">
<g filter="url(#filter0_d_5_78)">
<path d="M5 17C5 18.1 5.9 19 7 19C8.1 19 9 18.1 9 17C9 15.9 8.1 15 7 15C5.9 15 5 15.9 5 17ZM5 3C5 4.1 5.9 5 7 5C8.1 5 9 4.1 9 3C9 1.9 8.1 1 7 1C5.9 1 5 1.9 5 3ZM5 10C5 11.1 5.9 12 7 12C8.1 12 9 11.1 9 10C9 8.9 8.1 8 7 8C5.9 8 5 8.9 5 10Z" fill="#118442"/>
<path d="M5 17C5 18.1 5.9 19 7 19C8.1 19 9 18.1 9 17C9 15.9 8.1 15 7 15C5.9 15 5 15.9 5 17ZM5 3C5 4.1 5.9 5 7 5C8.1 5 9 4.1 9 3C9 1.9 8.1 1 7 1C5.9 1 5 1.9 5 3ZM5 10C5 11.1 5.9 12 7 12C8.1 12 9 11.1 9 10C9 8.9 8.1 8 7 8C5.9 8 5 8.9 5 10Z" stroke="white" stroke-width="1.5"/>
</g>
<defs>
<filter id="filter0_d_5_78" x="0.25" y="0.25" width="13.5" height="27.5" filterUnits="userSpaceOnUse" color-interpolation-filters="sRGB">
<feFlood flood-opacity="0" result="BackgroundImageFix"/>
<feColorMatrix in="SourceAlpha" type="matrix" values="0 0 0 0 0 0 0 0 0 0 0 0 0 0 0 0 0 0 127 0" result="hardAlpha"/>
<feOffset dy="4"/>
<feGaussianBlur stdDeviation="2"/>
<feComposite in2="hardAlpha" operator="out"/>
<feColorMatrix type="matrix" values="0 0 0 0 0 0 0 0 0 0 0 0 0 0 0 0 0 0 0.25 0"/>
<feBlend mode="normal" in2="BackgroundImageFix" result="effect1_dropShadow_5_78"/>
<feBlend mode="normal" in="SourceGraphic" in2="effect1_dropShadow_5_78" result="shape"/>
</filter>
</defs>
</svg>
